<svg id="Layer_1" data-name="Layer 1" xmlns="http://www.w3.org/2000/svg" viewBox="0 0 128 128"><defs><style>.cls-1{fill:none;stroke:#E16F6F;stroke-width:5px;}.cls-1,.cls-3{stroke-miterlimit:10;}.cls-2{fill:#E16F6F;}.cls-3{fill:#fff;stroke:#fff;}.cls-4{fill:#5b5b5b;}</style></defs><title>logo-128</title><path class="cls-1" d="M55.62,34c0-10.13,3.53-18.33,7.88-18.33"/><path class="cls-2" d="M64.07,30.79c33.05,0,59.85,30.14,59.85,67.32,0,13.64-16.11,22.27-36.5,25.9a137.88,137.88,0,0,1-49.2-.48c-19.19-3.88-34-12.35-34-25.42C4.22,60.94,31,30.79,64.07,30.79Z"/><path class="cls-3" d="M56.63,71.08a33.59,33.59,0,0,1-13.41,18.7c7.15,4.07,12.52,12.15,14.25,22a32.28,32.28,0,0,1,18.13-19C66.61,89.18,59.54,81.17,56.63,71.08Z"/><path class="cls-3" d="M99.25,71.08a33.59,33.59,0,0,0,13.41,18.7c-7.15,4.07-12.52,12.15-14.25,22a32.28,32.28,0,0,0-18.13-19C89.27,89.18,96.34,81.17,99.25,71.08Z"/><circle class="cls-2" cx="68" cy="12" r="9" transform="translate(7.92 46.04) rotate(-39.54)"/><ellipse class="cls-4" cx="98" cy="94.5" rx="5" ry="6.5"/><ellipse class="cls-4" cx="59" cy="94.5" rx="5" ry="6.5"/></svg>
